# xmcd CD database file
#
# Track frame offsets:
#	150
#	31866
#	59994
#	102264
#	129697
#	162402
#	180433
#	209874
#	245459
#	284605
#
# Disc length: 4275 seconds
#
# Revision: 0
# Processed by: cddbd v1.5.2PL0 Copyright (c) Steve Scherf et al.
# Submitted via: CDex 1.51
#
DISCID=9d10b10a
DTITLE=Various Artist - Blue Note RVG Editions
DYEAR=2005
DGENRE=Jazz
TTITLE0=Cannonball Adderley - Love for Sale
TTITLE1=Art Blakey and Jazz Messengers - Blues March
TTITLE2=Sonny Clark - Cool Struttin'
TTITLE3=Lee Morgan - Gary's Notebook
TTITLE4=Horace Silver - Song For My Farther
TTITLE5=Kenny Burrell - Midnight Blue
TTITLE6=Dexer Gorden - Cheese Cake
TTITLE7=Herbie Hancock - Maiden Voyage
TTITLE8=Grant Green - Diango
TTITLE9=Joe Henderson - Blue Bossa
EXTD=YEAR: 2005
EXTT0=
EXTT1=
EXTT2=
EXTT3=
EXTT4=
EXTT5=
EXTT6=
EXTT7=
EXTT8=
EXTT9=
PLAYORDER=
